<?xml version="1.0" encoding="UTF-8"?>
<svg id="_レイヤー_2" data-name="レイヤー 2" xmlns="http://www.w3.org/2000/svg" viewBox="0 0 1024 1024">
  <defs>
    <style>
      .cls-1 {
        fill: #fff;
      }

      .cls-2 {
        fill: none;
      }
    </style>
  </defs>
  <g id="_レイヤー_1-2" data-name="レイヤー 1">
    <g>
      <g>
        <path class="cls-1" d="M392.64,671.43l-58.22-63.6c-2.72-2.97-3.55-5.55-2.19-9.47l7.83-22.64c.23-.67.29-2.48-.19-2.86s-1.67-.68-2.55-.6l-122.34,11.27c-7.45.69-12.94-5.11-12.3-11.96.3-3.23,1.3-6.21,3.14-9.06l77.19-119.33c7.05-10.9,17.37-18.15,29.51-21.92l17.76-4.31,88.18-15.16c2.87-.49,4.77-1.02,6.54-3.37,40.39-53.52,86.81-102.16,142.64-139.89,74.46-50.31,156.71-81.11,246.19-89.14,11.88-1.07,22.81-1.15,34.47-.18,5.9.49,10.55,5.56,10.7,11.68.34,14.44-1.31,28.2-3.38,42.81-5.5,38.66-15.62,75.75-29.93,112.09s-31.8,71.21-53.84,103.67c-19.97,29.4-42.57,56.54-67.73,81.63-27.44,27.36-57.79,50.88-89.63,72.69-2.11,1.45-5.04,3.23-5.69,5.7l-19.27,73.14-9.24,31.28c-3.92,13.27-12.76,23.79-25.08,30.7l-132.07,74.14c-4.04,2.27-9.04,2.42-12.94.57s-6.58-7.07-5.66-12.11l23.62-129.86-27.92,5.95c-1.82.39-5.83.09-7.59-1.84ZM696.12,383.47c1.24-33.68-25.07-61.99-58.75-63.22-33.68-1.24-61.99,25.07-63.22,58.75-1.24,33.68,25.07,61.99,58.75,63.22s61.99-25.07,63.22-58.75Z"/>
        <path class="cls-1" d="M246.01,837.87c-28.84,16.38-54.67,34.84-80.89,56.73,4.98-36.63,15.75-71.52,31.64-104.75,8.05-16.83,18.12-31.78,31.15-45.25-17.84-3.99-30.73,5.26-43.14,17.44,9.02-43.15,31.17-80.89,69.81-101.8,21.22-11.48,47.59-15.93,70.13-6.72,23.8,9.72,35.87,35.21,33.72,60.51-1.28,15.07-6.26,29.06-13.82,42.28-13.09,22.9-37.6,44.36-60.05,58.06l-38.55,23.51Z"/>
      </g>
      <rect class="cls-2" width="1024" height="1024"/>
    </g>
  </g>
</svg>